<svg
						width="300"
						height="200"
						viewBox="0 0 205 172"
						fill="none"
						xmlns="http://www.w3.org/2000/svg">
						<path
							d="M4.3418 134V36.0312H34.4004C39.4102 36.0312 43.1953 37.1816 45.7559 39.4824C48.3164 41.7461 50.0234 44.9375 50.877 49.0566C51.7676 53.1387 52.2129 57.9443 52.2129 63.4736C52.2129 68.8174 51.5264 73.085 50.1533 76.2764C48.8174 79.4678 46.2754 81.6758 42.5273 82.9004C45.6074 83.5312 47.7598 85.0713 48.9844 87.5205C50.2461 89.9326 50.877 93.0684 50.877 96.9277V134H31.5615V95.6475C31.5615 92.79 30.9678 91.0273 29.7803 90.3594C28.6299 89.6543 26.7559 89.3018 24.1582 89.3018V134H4.3418ZM24.2695 72.3242H29.001C31.71 72.3242 33.0645 69.374 33.0645 63.4736C33.0645 59.6514 32.7676 57.1465 32.1738 55.959C31.5801 54.7715 30.4668 54.1777 28.834 54.1777H24.2695V72.3242ZM58.6699 134V36.0312H97.8574V54.957H78.5977V74.0498H97.0781V92.4746H78.5977V114.907H99.1377V134H58.6699ZM105.65 134V36.0312H144.838V54.957H125.578V74.0498H144.059V92.4746H125.578V114.907H146.118V134H105.65ZM152.631 134V36.0312H179.572C186.623 36.0312 191.93 37.998 195.492 41.9316C199.055 45.8281 200.836 51.543 200.836 59.0762V104.943C200.836 114.221 199.203 121.383 195.938 126.43C192.709 131.477 187.031 134 178.904 134H152.631ZM172.336 116.688H175.731C179.331 116.688 181.131 114.944 181.131 111.456V60.9131C181.131 57.6475 180.686 55.5508 179.795 54.623C178.941 53.6582 177.179 53.1758 174.507 53.1758H172.336V116.688Z"
							fill="#DF3325" />
						<rect x="19" y="53" width="19" height="24" fill="#DF3325" />
						<rect x="168" y="53" width="18" height="65" fill="#DF3325" />
						<rect x="31" y="118" width="174" height="11" fill="white" />
					</svg>